Coordinates
version=1
nRows=25
nColumns=28
inDegrees=yes

Units are S.I. units (second, meters, Newtons, ...)
If the header above contains a line with 'inDegrees', this indicates whether rotational values are in degrees (yes) or radians (no).

endheader
time	pelvis_tilt	pelvis_list	pelvis_rotation	pelvis_tx	pelvis_ty	pelvis_tz	hip_flexion_r	hip_adduction_r	hip_rotation_r	knee_angle_r	knee_rotation_r	knee_adduction_r	ankle_angle_r	subtalar_angle_r	mtp_angle_r	hip_flexion_l	hip_adduction_l	hip_rotation_l	knee_angle_l	knee_rotation_l	knee_adduction_l	ankle_angle_l	subtalar_angle_l	mtp_angle_l	lumbar_extension	lumbar_bending	lumbar_rotation
      0.29000000	      8.60979204	     10.26415986	    -96.93532635	     -0.19116716	      0.93786724	     -0.40916728	     22.51060015	    -10.31278481	     15.36487552	    -60.56170549	      4.98389373	      9.43102749	     -4.35741218	     -0.50296227	      3.83246787	     36.64820297	      9.88462569	      3.19412771	    -27.65961772	     -0.56882033	     -1.10772167	     13.06587392	     -4.99968184	     -3.97288354	      0.00000000	      0.00000000	      0.00000000
      0.30000000	      9.16148340	     10.13786758	    -96.47886948	     -0.19096231	      0.93950750	     -0.39839929	     24.01493534	    -10.95199351	     15.30852052	    -62.80401717	      4.79070238	      9.47942307	     -4.20187979	     -0.49095458	      3.66637576	     35.77908464	     10.57423677	      4.54558514	    -27.46019158	      0.17746446	     -1.97755105	     13.47305919	     -5.20185935	     -3.98778752	      0.00000000	      0.00000000	      0.00000000
      0.31000000	      9.47421850	     10.22476165	    -95.94409459	     -0.19051333	      0.94097433	     -0.38729330	     25.50401746	    -11.39123980	     15.30230238	    -64.58907830	      4.64926834	      9.68966474	     -3.66749705	     -0.61465747	      3.51709185	     35.12496876	     11.12436826	      5.85955846	    -27.44380667	      0.83740028	     -2.62812218	     13.96359917	     -5.03570959	     -4.03674204	      0.00000000	      0.00000000	      0.00000000
      0.32000000	      9.92795275	     10.00475989	    -95.69071740	     -0.19076251	      0.94289171	     -0.37630653	     26.75583546	    -11.84100052	     15.88216253	    -66.09228089	      4.47405296	     10.11794897	     -3.01278005	     -0.98122313	      3.50286218	     33.99145306	     11.71132965	      7.03042887	    -27.07063702	      1.68193454	     -3.13536328	     14.38757108	     -4.86195815	     -4.08476740	      0.00000000	      0.00000000	      0.00000000
      0.33000000	     10.59823837	      9.75637696	    -95.20926510	     -0.19009092	      0.94487689	     -0.36452779	     27.83193922	    -12.83536803	     16.11443228	    -67.31829772	      4.37003585	     10.53185055	     -2.13478589	     -1.52653089	      3.57227365	     32.57452162	     12.79859395	      8.47953051	    -26.28820513	      2.63611670	     -3.41539404	     14.72230405	     -4.68162908	     -4.10056525	      0.00000000	      0.00000000	      0.00000000
      0.34000000	     10.59516961	      9.60462015	    -94.94668531	     -0.19058778	      0.94722362	     -0.35325404	     28.84611565	    -12.73802456	     16.13254249	    -67.93247688	      4.62898283	     10.51200678	     -1.98313279	     -2.74306519	      3.75321078	     31.41268827	     12.88367282	      8.91807569	    -25.97723035	      3.04851875	     -3.56625237	     15.36791410	     -3.80758424	     -3.97521721	      0.00000000	      0.00000000	      0.00000000
      0.35000000	     11.03477144	      9.27510080	    -94.31993704	     -0.19040740	      0.94942230	     -0.34117103	     29.54872978	    -13.38824545	     16.08324816	    -68.44155920	      4.58931902	     10.62556617	     -1.39229842	     -3.43193024	      3.82349781	     29.78993447	     13.70440705	      9.61994947	    -25.16967133	      3.38966296	     -3.47093288	     15.75296330	     -3.25057286	     -3.86230211	      0.00000000	      0.00000000	      0.00000000
      0.36000000	     11.05399304	      9.07129596	    -93.96969653	     -0.19048776	      0.95159868	     -0.33016961	     30.39569130	    -13.40353364	     15.96852840	    -68.55071132	      4.92160675	     10.48199435	     -1.23562951	     -4.93716845	      3.84852399	     28.52268786	     13.88588049	      9.74684893	    -24.74463636	      3.39240569	     -3.37251413	     16.35355904	     -2.56261137	     -3.66022832	      0.00000000	      0.00000000	      0.00000000
      0.37000000	     11.22051272	      8.82125262	    -93.59673073	     -0.19065669	      0.95385490	     -0.31871611	     31.11531111	    -13.59561514	     15.62199264	    -68.42745263	      5.40010495	     10.08397486	     -1.00679080	     -6.55190911	      3.64533199	     27.05701072	     14.22409348	      9.84071657	    -24.02878421	      3.46565121	     -3.17981492	     16.83615167	     -1.78358904	     -3.33089011	      0.00000000	      0.00000000	      0.00000000
      0.38000000	     11.19760705	      8.52593710	    -93.14100089	     -0.19030948	      0.95604517	     -0.30751810	     31.52963265	    -13.75185866	     15.31086348	    -67.69597345	      6.62095300	     10.13952146	     -0.93525726	    -10.04504789	     -0.80651198	     25.56880217	     14.38925573	      9.79278701	    -23.39118395	      3.00350020	     -2.97984557	     17.35723377	     -1.47858452	     -1.49941016	      0.00000000	      0.00000000	      0.00000000
      0.39000000	     11.44786449	      8.62354032	    -92.87470678	     -0.19011862	      0.95750621	     -0.29626539	     32.67320671	    -14.11643149	     15.13044127	    -67.28193610	      6.28652254	      9.72433560	     -0.51785999	    -10.21562742	     -0.79550878	     24.46425484	     14.72198814	      9.58559554	    -22.61082650	      2.66750724	     -2.74767891	     17.60943784	     -1.14724947	     -1.50673650	      0.00000000	      0.00000000	      0.00000000
      0.40000000	     11.35091523	      8.39612836	    -92.65675447	     -0.19009899	      0.95937034	     -0.28536858	     33.51363507	    -13.99713293	     14.59942159	    -66.62365651	      6.06997505	      9.22677846	     -0.93072989	    -11.98884432	     -0.57445206	     23.12246412	     14.63836273	      9.13607865	    -22.04033693	      2.53750462	     -2.51927839	     18.20170550	      0.16249295	     -1.38621711	      0.00000000	      0.00000000	      0.00000000
      0.41000000	     11.38040997	      8.35143800	    -92.29462392	     -0.19011348	      0.96089533	     -0.27431574	     34.45265315	    -14.03854247	     13.91675093	    -65.83947744	      5.73507272	      8.49428197	     -1.34075394	    -13.18123593	     -0.32013857	     21.88099398	     14.68961058	      9.16723830	    -21.33820465	      2.40465231	     -2.45038102	     18.54904909	      0.80032767	     -1.24668012	      0.00000000	      0.00000000	      0.00000000
      0.42000000	     11.24289957	      8.12112744	    -92.01014745	     -0.19049306	      0.96259771	     -0.26349265	     35.08358783	    -13.82360630	     13.44333326	    -64.73565884	      5.19111401	      7.94651117	     -1.77974589	    -14.41625498	      0.11443811	     20.50134272	     14.48028517	      8.97132812	    -20.72330107	      1.91406591	     -2.40155619	     18.98755490	      1.35368279	     -1.06770936	      0.00000000	      0.00000000	      0.00000000
      0.43000000	     11.44067013	      8.18361266	    -91.47944730	     -0.19042304	      0.96307841	     -0.25288152	     35.34479628	    -14.32205919	     14.23157310	    -62.87716518	      4.63904173	      8.72020397	     -0.16613510	    -15.16858619	      0.05019902	     19.52326077	     14.74978374	      9.32193234	    -20.26180908	      1.87377723	     -2.40655778	     19.35137308	      1.66921372	     -1.01447830	      0.00000000	      0.00000000	      0.00000000
      0.44000000	     11.75722748	      7.78818097	    -91.23297563	     -0.19101922	      0.96399020	     -0.24233591	     35.15449346	    -14.81513146	     15.15238142	    -60.87856733	      4.32911072	      9.29673905	      1.51491906	    -15.49757556	     -0.50568790	     18.03646620	     15.04283440	      9.46557475	    -19.63958316	      1.74282196	     -2.39617024	     19.54095847	      2.14445091	     -0.77369153	      0.00000000	      0.00000000	      0.00000000
      0.45000000	     11.79007705	      7.86370608	    -90.95600411	     -0.19136264	      0.96436983	     -0.23189216	     35.77682038	    -14.84518608	     15.41105442	    -59.05966459	      3.46446883	      9.28790031	      1.86316418	    -15.83340271	     -0.63324163	     17.12144544	     15.04559474	      9.67822267	    -19.19643026	      1.44876057	     -2.40989009	     19.97505002	      2.21404513	     -0.71860561	      0.00000000	      0.00000000	      0.00000000
      0.46000000	     11.73332993	      7.83668416	    -90.81535134	     -0.19204465	      0.96466452	     -0.22151725	     36.18411287	    -14.65271892	     15.86100260	    -57.06027593	      2.58138279	      9.22994478	      2.30315379	    -15.94304857	     -0.76748444	     16.18452330	     14.95894328	     10.00675852	    -18.89519949	      1.64606844	     -2.41430265	     20.52038290	      2.43998510	     -0.67575811	      0.00000000	      0.00000000	      0.00000000
      0.47000000	     11.77920609	      7.89087443	    -90.65362196	     -0.19275782	      0.96488284	     -0.21113867	     36.54996907	    -14.57480082	     16.27513557	    -54.74646628	      1.62827255	      9.14765251	      2.70918844	    -15.99267697	     -0.91458389	     15.22866801	     14.95349899	     10.36395704	    -18.33981000	      1.48204549	     -2.48740425	     20.87835083	      2.36229140	     -0.63327394	      0.00000000	      0.00000000	      0.00000000
      0.48000000	     11.68226223	      7.72724965	    -90.56888559	     -0.19372430	      0.96499373	     -0.20154932	     36.71843218	    -14.23521879	     16.45804237	    -52.36851109	      1.05883465	      8.74417418	      2.85977001	    -16.16101006	     -1.35325877	     14.29551102	     14.78102908	     10.80868385	    -18.18150918	      1.56752902	     -2.62549649	     21.42713843	      2.43489342	     -0.52440294	      0.00000000	      0.00000000	      0.00000000
      0.49000000	     11.48686499	      7.79936175	    -90.00309759	     -0.19391846	      0.96451506	     -0.19132090	     36.81375544	    -14.10541958	     16.47642559	    -49.99185341	     -0.38823331	      8.39765807	      3.97245833	    -14.83659198	     -4.84364145	     13.60906956	     14.72315369	     11.88977021	    -18.30463857	      1.89399666	     -2.70594916	     22.09112247	      2.46378150	     -0.17622699	      0.00000000	      0.00000000	      0.00000000
      0.50000000	     11.52775715	      8.03218949	    -90.23349283	     -0.19538323	      0.96391424	     -0.18151239	     37.43668093	    -13.72593051	     16.81844200	    -47.42840471	     -1.10489383	      7.84729278	      3.88865223	    -14.68368269	     -4.83109976	     13.01451016	     14.64286863	     12.42901564	    -17.87819367	      2.14510164	     -2.85048415	     22.37622960	      2.16044382	     -0.19751519	      0.00000000	      0.00000000	      0.00000000
      0.51000000	     11.17957742	      8.25066724	    -90.07183823	     -0.19625364	      0.96344415	     -0.17148652	     37.67937079	    -13.06536950	     16.62250655	    -44.55312244	     -1.99852350	      6.97491383	      3.50237471	    -14.10623049	     -4.71832807	     12.64093296	     14.19167187	     12.25958284	    -18.05396359	      1.77022907	     -2.85527870	     22.89656163	      2.42646434	     -0.14564442	      0.00000000	      0.00000000	      0.00000000
      0.52000000	     11.00851627	      8.18391114	    -89.92144328	     -0.19722246	      0.96323456	     -0.16143460	     37.52657703	    -12.67478871	     16.48584762	    -41.49900706	     -2.85764071	      6.15895938	      4.01032356	    -12.79805848	     -4.20402773	     11.78129554	     13.95762278	     12.82214982	    -17.84671352	      1.92404883	     -2.92747623	     23.34227328	      2.60583587	      0.04290047	      0.00000000	      0.00000000	      0.00000000
      0.53000000	     10.89578855	      8.29220776	    -90.01781765	     -0.19863877	      0.96259838	     -0.15142754	     37.56881120	    -12.15816343	     16.64775215	    -38.37402872	     -3.51948786	      5.36094761	      4.12528250	    -11.71944846	     -3.65465193	     11.08674377	     13.70899560	     13.37086273	    -17.59278338	      1.92133354	     -3.20867391	     23.65970784	      1.74669272	      0.00513084	      0.00000000	      0.00000000	      0.00000000
